<svg width="20" height="20" viewBox="0 0 20 20" fill="none" xmlns="http://www.w3.org/2000/svg">
<path d="M14.9995 0.00416134L12.4059 0C9.49214 0 7.60914 1.9319 7.60914 4.92203V7.19141H5.00144C4.7761 7.19141 4.59363 7.37409 4.59363 7.59943V10.8875C4.59363 11.1128 4.77631 11.2953 5.00144 11.2953H7.60914V19.5922C7.60914 19.8175 7.79161 20 8.01695 20H11.4193C11.6446 20 11.8271 19.8173 11.8271 19.5922V11.2953H14.8761C15.1014 11.2953 15.2839 11.1128 15.2839 10.8875L15.2851 7.59943C15.2851 7.49123 15.2421 7.38762 15.1657 7.31105C15.0893 7.23448 14.9853 7.19141 14.8771 7.19141H11.8271V5.26763C11.8271 4.34298 12.0474 3.87358 13.2519 3.87358L14.999 3.87295C15.2242 3.87295 15.4066 3.69027 15.4066 3.46514V0.411972C15.4066 0.187052 15.2244 0.00457747 14.9995 0.00416134Z" fill="white"/>
</svg>
